# xmcd
#
# Track frame offsets:
#	180
#	12749
#	28385
#	41034
#	55982
#	72807
#	88761
#	107456
#	122626
#	139828
#	157128
#	169792
#	186591
#	200674
#	215776
#
# Disc length: 3121 seconds
#
# Revision: 1
# Processed by: cddbd v1.5.2PL0 Copyright (c) Steve Scherf et al.
# Submitted via: audiograbber 1.83.01
#
DISCID=ec0c2f0f
DTITLE=Roto Noto - Total Fun
DYEAR=1996
DGENRE=
TTITLE0=Rock ´n´ Roll Heart -Michael Terry
TTITLE1=I´m Coming Home -Barncats
TTITLE2=Older Than Me -Kiley Joe Masson
TTITLE3=The Only Thing Missin Is You -Lauren Cook
TTITLE4=First Thing I Wanna Forget -Mary Beth Sippin
TTITLE5=Whisper -Jett
TTITLE6=You Can Write It On My Grave -Jaques La Rock
TTITLE7=I Dedicate All My Love To You -Bobby McGee
TTITLE8=Amber Lights -Somerville Bros
TTITLE9=Marcia, Marcia, Marcia -Ghost Rockers
TTITLE10=Still Loving You (like I Did -Wrecking Crew
TTITLE11=See Me Thru -Shade Stone 
TTITLE12=Something A Little Stronger -Jay Stollman
TTITLE13=Follow -Trial Mile
TTITLE14=Some Strange Reason -Mark Severn
EXTD=
EXTT0=
EXTT1=
EXTT2=
EXTT3=
EXTT4=
EXTT5=
EXTT6=
EXTT7=
EXTT8=
EXTT9=
EXTT10=
EXTT11=
EXTT12=
EXTT13=
EXTT14=
PLAYORDER=
